<?xml version="1.0" encoding="UTF-8"?>
<svg xmlns="http://www.w3.org/2000/svg" xmlns:xlink="http://www.w3.org/1999/xlink" width="500pt" height="500pt" viewBox="0 0 500 500" version="1.1">
<g id="surface1">
<path style=" stroke:none;fill-rule:nonzero;fill:#08F2E6;fill-opacity:1;" d="M 49.601563 39.683594 C 44.140625 39.683594 39.683594 44.140625 39.683594 49.601563 L 39.683594 446.429688 C 39.683594 451.894531 44.140625 456.347656 49.601563 456.347656 L 446.429688 456.347656 C 451.894531 456.347656 456.347656 451.894531 456.347656 446.429688 L 456.347656 49.601563 C 456.347656 44.140625 451.894531 39.683594 446.429688 39.683594 Z M 59.523438 59.523438 L 436.507813 59.523438 L 436.507813 436.507813 L 59.523438 436.507813 Z M 198.414063 109.128906 L 198.414063 188.492188 L 396.824219 188.492188 L 396.824219 109.128906 Z M 218.253906 128.96875 L 376.984375 128.96875 L 376.984375 168.652344 L 218.253906 168.652344 Z M 99.207031 138.890625 L 99.207031 158.730469 L 178.570313 158.730469 L 178.570313 138.890625 Z M 198.414063 228.175781 L 198.414063 307.539063 L 396.824219 307.539063 L 396.824219 228.175781 Z M 218.253906 248.015625 L 376.984375 248.015625 L 376.984375 287.699219 L 218.253906 287.699219 Z M 99.207031 257.9375 L 99.207031 277.777344 L 178.570313 277.777344 L 178.570313 257.9375 Z M 198.414063 347.222656 L 198.414063 406.746094 L 257.9375 406.746094 L 257.9375 347.222656 Z M 218.253906 367.0625 L 238.09375 367.0625 L 238.09375 386.90625 L 218.253906 386.90625 Z M 277.777344 367.0625 L 277.777344 386.90625 L 396.824219 386.90625 L 396.824219 367.0625 Z "/>
</g>
</svg>
